<?xml version="1.0" encoding="utf-8"?>
<!-- Generator: Adobe Illustrator 18.1.1, SVG Export Plug-In . SVG Version: 6.00 Build 0)  -->
<svg version="1.1" id="Capa_1" xmlns="http://www.w3.org/2000/svg" xmlns:xlink="http://www.w3.org/1999/xlink" x="0px" y="0px"
	 viewBox="-43 145 512 512" enable-background="new -43 145 512 512" xml:space="preserve">
<g>
	<path fill="#FFFFFF" d="M103.2,305.2c-0.9,6.8,2.6,9.6,4.2,10.5c1.6,0.9,5.8,2.5,11.2-1.7l28.4-22.1c5.2-5.2,5.7-13.5,1.2-19.3
		l-20.8-27c-2.8-3.7-5.8-4.6-7.8-4.7c-4.7-0.3-8.6,3.4-9.4,9.4l-1.7,13.3c-0.2,1.6-2.1,3.3-3.9,3.4c-38.4,2-74.7,18.1-102,45.5
		c-20.5,20.5-34.8,46.3-41.4,74.6c-4.7,20.1-5.4,40.8-1.9,61.3c6.6,38.8,27.2,73.4,58,97.3c2.6,2,6.2,3.6,11.1-1.3
		c0.9-0.9,2-2.1,3-3.4c2.3-3,7.6-9.9,2-14.3c-26.7-20.8-44-49.9-49.5-82.4c-2.9-17.2-2.4-34.5,1.6-51.5C-9,368.9,3,347.2,20.2,330
		c22.4-22.4,52-35.9,83.5-38.1l1,1.3L103.2,305.2z"/>
	<path fill="#FFFFFF" d="M221.5,199.1v194.2h34V222.4c0-3.8,3.1-6.9,6.9-6.9h137.9c3.8,0,6.9,3.1,6.9,6.9v170.9h34V199.1
		c0-13.9-11.3-25.2-25.2-25.2H246.7C232.8,173.9,221.5,185.2,221.5,199.1z"/>
	<path fill="#FFFFFF" d="M469,433.5c0-13.9-11.3-25.2-25.2-25.2H120.7c-13.9,0-25.2,11.3-25.2,25.2v169.4
		c0,13.9,11.3,25.2,25.2,25.2h323.1c13.9,0,25.2-11.3,25.2-25.2V433.5z M453.6,518.6c0,8.8-7.1,15.9-15.9,15.9
		c-8.8,0-15.9-7.1-15.9-15.9c0-8.7,7.1-15.9,15.9-15.9C446.5,502.8,453.6,509.9,453.6,518.6z M144,594.1c-3.8,0-6.9-3.1-6.9-6.9
		V449.3c0-3.8,3.1-6.9,6.9-6.9h248.8c3.8,0,6.9,3.1,6.9,6.9v137.9c0,3.8-3.1,6.9-6.9,6.9L144,594.1L144,594.1z"/>
</g>
</svg>
